<svg xmlns="http://www.w3.org/2000/svg" width="18.135" height="20.188" viewBox="0 0 18.135 20.188">
  <g id="组_807" data-name="组 807" transform="translate(-112.357 -67.13)">
    <path id="路径_625" data-name="路径 625" d="M125.152,79.355a5.675,5.675,0,0,0,1.906-4.24V69.623a.642.642,0,0,0-.157-.59,7.971,7.971,0,0,0-5.572-1.9,8.139,8.139,0,0,0-5.347,1.711v0a.651.651,0,0,0-.311.554v5.719a5.676,5.676,0,0,0,1.932,4.263,7.615,7.615,0,0,0-5.24,6.56,1.263,1.263,0,0,0,1.258,1.379h15.607a1.264,1.264,0,0,0,1.258-1.38A7.666,7.666,0,0,0,125.152,79.355Zm.6-9.6v4.23a10.649,10.649,0,0,0-8.774-.008V69.716a6.984,6.984,0,0,1,4.353-1.28A7.1,7.1,0,0,1,125.752,69.756ZM117,75.465l.02.025a7.426,7.426,0,0,1,4.335-1.147,7.311,7.311,0,0,1,4.381,1.192A4.384,4.384,0,0,1,117,75.465Zm-3.326,10.546a6.408,6.408,0,0,1,3.5-5.037,4.3,4.3,0,0,0-.2,1.3v.339a1.356,1.356,0,1,0,1.307-.042v-.3a2.984,2.984,0,0,1,.662-1.876c.066-.011.131-.027.2-.036l.014,0a5.693,5.693,0,0,0,4.432,0,2.975,2.975,0,0,1,.69,1.912v.282a1.337,1.337,0,0,0-.675,1.158v.8a.544.544,0,0,0,1.089,0v-.8a.252.252,0,0,1,.147-.229.66.66,0,0,0,.093.009.64.64,0,0,0,.107-.011.252.252,0,0,1,.149.23v.8a.544.544,0,1,0,1.089,0v-.8a1.337,1.337,0,0,0-.692-1.167v-.273a4.3,4.3,0,0,0-.262-1.471,6.358,6.358,0,0,1,3.868,5.208H113.669Zm3.989-2.505a.267.267,0,1,1-.267.267A.267.267,0,0,1,117.657,83.506Z" transform="translate(0)" fill="#2c2c2c"/>
    <path id="路径_626" data-name="路径 626" d="M439.214,164.724h.364v.364a.654.654,0,0,0,1.307,0v-.364h.364a.653.653,0,1,0,0-1.307h-.364v-.364a.654.654,0,0,0-1.307,0v.364h-.364a.653.653,0,1,0,0,1.307Z" transform="translate(-318.803 -93.109)" fill="#2c2c2c"/>
  </g>
</svg>
