<svg xmlns="http://www.w3.org/2000/svg" width="16.658" height="16.434" viewBox="0 0 16.658 16.434">
  <g id="组_900" data-name="组 900" transform="translate(-105.475 -112.875)">
    <path id="路径_627" data-name="路径 627" d="M501.89,679.933a11.6,11.6,0,0,1-1.585-.106c-1.393-.2-2.167-.666-2.3-1.383a.255.255,0,0,1-.006-.055,2.915,2.915,0,0,1,2.145-2.739,7.152,7.152,0,0,1,2.049-.45h.018a4.893,4.893,0,0,1,3.031,1.037,2.882,2.882,0,0,1,1.173,2.155.97.97,0,0,1-.308.7,4.089,4.089,0,0,1-2.336.766,13.77,13.77,0,0,1-1.568.077C502.169,679.929,502.057,679.933,501.89,679.933Zm-3.279-1.576c.1.405.725.711,1.774.864a11.028,11.028,0,0,0,1.8.1h.018a13.969,13.969,0,0,0,1.509-.075,3.7,3.7,0,0,0,1.967-.595.347.347,0,0,0,.124-.261c0-1.194-1.475-2.544-3.591-2.581a6.619,6.619,0,0,0-1.857.414A2.331,2.331,0,0,0,498.611,678.357Z" transform="translate(-384.408 -550.75)" fill="#73a5c3" stroke="#73a5c3" stroke-width="0.25"/>
    <path id="路径_628" data-name="路径 628" d="M112.576,128.369h-4.729a2.509,2.509,0,0,1-2.246-2.7V115.7a2.509,2.509,0,0,1,2.246-2.7h9.866a2.509,2.509,0,0,1,2.246,2.7v2.715a.306.306,0,0,1-.611,0V115.7a2.382,2.382,0,0,0-.5-1.5,1.464,1.464,0,0,0-1.134-.591h-9.864a1.47,1.47,0,0,0-1.134.591,2.382,2.382,0,0,0-.5,1.5v9.962a2.382,2.382,0,0,0,.5,1.5,1.464,1.464,0,0,0,1.134.591h4.729a.307.307,0,0,1,0,.613Z" fill="#73a5c3" stroke="#73a5c3" stroke-width="0.25"/>
    <path id="路径_629" data-name="路径 629" d="M205.169,256.611h-6.864a.305.305,0,1,1,0-.611h6.864a.305.305,0,0,1,0,.611Zm-2.075,3.87h-4.788a.306.306,0,0,1,0-.611h4.788a.306.306,0,0,1,0,.611Zm-1.978,3.646h-2.811a.306.306,0,1,1,0-.611h2.811a.306.306,0,1,1,0,.611Zm7.2,1.01a2.263,2.263,0,0,1-2.261-2.261v-2.356a1.219,1.219,0,0,1,1.218-1.218h2.137a1.168,1.168,0,0,1,1.167,1.167v2.405A2.264,2.264,0,0,1,208.318,265.137Zm-1.045-5.224a.608.608,0,0,0-.607.607v2.356a1.65,1.65,0,1,0,3.3,0v-2.407a.557.557,0,0,0-.556-.556Z" transform="translate(-90.518 -140.088)" fill="#73a5c3" stroke="#73a5c3" stroke-width="0.25"/>
    <path id="路径_630" data-name="路径 630" d="M597.714,484.229h-3.809a.306.306,0,0,1,0-.611h3.809a.306.306,0,0,1,0,.611Zm-1.222-1.318h-1.265a.306.306,0,1,1,0-.611h1.265a.306.306,0,0,1,0,.611Z" transform="translate(-478.061 -361.778)" fill="#73a5c3" stroke="#73a5c3" stroke-width="0.25"/>
    <path id="路径_631" data-name="路径 631" d="M689.905,453.776a.305.305,0,0,1-.305-.305v-1.265a.306.306,0,0,1,.611,0v1.265A.305.305,0,0,1,689.905,453.776Z" transform="translate(-572.106 -331.998)" fill="#73a5c3" stroke="#73a5c3" stroke-width="0.25"/>
  </g>
</svg>
