<svg xmlns="http://www.w3.org/2000/svg" width="14.333" height="14.333" viewBox="0 0 14.333 14.333"><defs><style>.a{fill:#606266;}</style></defs><g transform="translate(-83.1 -83.1)"><path class="a" d="M95.338,85.2a7.167,7.167,0,1,0,0,10.139A7.127,7.127,0,0,0,95.338,85.2Zm-.66,9.481A6.244,6.244,0,1,1,96.5,90.266,6.195,6.195,0,0,1,94.678,94.678Z" transform="translate(0 0)"/><path class="a" d="M342.329,260.389l.007,0a.36.36,0,0,0-.109-.7h-2.17v-.665l2.231-2.209,0-.007a.4.4,0,0,0,.033-.142.369.369,0,0,0-.6-.287l-2.017,1.988-2.134-2.094,0,0a.343.343,0,0,0-.221-.067.377.377,0,0,0-.279.1.362.362,0,0,0-.037.429l.035.057L339.333,259v.683l-2.267.017h-.007l-.007,0a.359.359,0,0,0,0,.685l.058.018h2.219v1.116l-2.267.017h-.007l-.005,0a.357.357,0,0,0-.251.343.361.361,0,0,0,.251.344l.057.018h2.221l0,2.219.018.037a.359.359,0,0,0,.683,0l.018-.058v-2.194l2.272-.017.007,0a.36.36,0,0,0-.109-.7h-2.164v-1.118Z" transform="translate(-249.461 -170.208)"/></g></svg>