<svg xmlns="http://www.w3.org/2000/svg" width="12.674" height="11.34" viewBox="0 0 12.674 11.34"><defs><style>.a{fill:#606266;}</style></defs><path class="a" d="M113.487,46.7h2.183a.573.573,0,0,1,.606.606h0a.608.608,0,0,1-.606.606h-2.183a.608.608,0,0,1-.606-.606h0A.573.573,0,0,1,113.487,46.7Zm5.154,0h6.307a.608.608,0,0,1,.606.606h0a.652.652,0,0,1-.606.606h-6.307a.608.608,0,0,1-.606-.606h0A.573.573,0,0,1,118.642,46.7Zm-5.154,5.033h11.461a.652.652,0,0,1,.606.606h0a.652.652,0,0,1-.606.606H113.487a.608.608,0,0,1-.606-.606h0a.608.608,0,0,1,.606-.606Zm0,5.154h2.183a.56.56,0,0,1,.606.546h0a.573.573,0,0,1-.606.606h-2.183a.573.573,0,0,1-.606-.606h0A.56.56,0,0,1,113.487,56.886Zm5.154,0h6.307a.6.6,0,0,1,.606.546h0a.608.608,0,0,1-.606.606h-6.307a.573.573,0,0,1-.606-.606h0A.56.56,0,0,1,118.642,56.886Z" transform="translate(-112.881 -46.698)"/></svg>