<svg xmlns="http://www.w3.org/2000/svg" width="10.87" height="20.188" viewBox="0 0 10.87 20.188"><defs><style>.a{fill:#2c2c2c;}</style></defs><g transform="translate(0.001 0)"><path class="a" d="M544,225.553a.776.776,0,0,1,.776.776v2.329h1.553v-2.329A2.329,2.329,0,0,0,544,224Z" transform="translate(-537.789 -220.894)"/><path class="a" d="M288,101.583a5.437,5.437,0,1,1,10.87,0v9.023a5.437,5.437,0,1,1-10.87,0Zm5.435-4.03a3.958,3.958,0,0,0-3.882,4.03v3.735h7.764v-3.735A3.959,3.959,0,0,0,293.435,97.553Zm-3.882,13.052a3.885,3.885,0,1,0,7.764,0v-3.735h-7.764Z" transform="translate(-288.001 -96)"/></g></svg>