<svg xmlns="http://www.w3.org/2000/svg" width="15.418" height="17.521" viewBox="0 0 15.418 17.521"><defs><style>.a{fill:#2c2c2c;}</style></defs><g transform="translate(0 0)"><path class="a" d="M140.915,91.9H128.3a1.408,1.408,0,0,1-1.4-1.426V75.758a1.4,1.4,0,0,1,1.4-1.377h8.76a.7.7,0,0,1,.514.224l4.555,4.906a.687.687,0,0,1,.187.453V90.476A1.408,1.408,0,0,1,140.915,91.9ZM128.3,75.758V90.476h12.615V80.239l-4.16-4.456Z" transform="translate(-126.899 -74.381)"/><path class="a" d="M277.12,81.39h-5.606a.7.7,0,0,1-.7-.7V75.083a.7.7,0,1,1,1.4,0v4.906h4.906a.7.7,0,0,1,0,1.4Zm-4.941,3.419h-2.714V82.091H267.9v2.718h-2.725v1.53H267.9V89.1h1.569v-2.76h2.714Z" transform="translate(-262.403 -74.382)"/></g></svg>