<svg xmlns="http://www.w3.org/2000/svg" width="13.313" height="16.734" viewBox="0 0 13.313 16.734"><defs><style>.a{fill:#606266;}</style></defs><g transform="translate(-167.63 -74.21)"><path class="a" d="M179.957,89.5H168.616a.988.988,0,0,1-.986-.986V85.727a.988.988,0,0,1,.986-.986h11.341a.988.988,0,0,1,.986.986v2.787A.988.988,0,0,1,179.957,89.5Zm-11.341-3.853a.081.081,0,0,0-.08.08v2.787a.082.082,0,0,0,.08.08h11.341a.082.082,0,0,0,.08-.08V85.727a.081.081,0,0,0-.08-.08Zm-.533,4.392H180.49v.906H168.083Zm6.2-7.032a4.4,4.4,0,1,1,4.4-4.4A4.4,4.4,0,0,1,174.287,83.006Zm0-7.89a3.492,3.492,0,1,0,3.492,3.492A3.5,3.5,0,0,0,174.287,75.116Z"/><path class="a" d="M348.378,459.6l.227-3.736.9.055-.227,3.736Zm5.257-3.68.9-.055.226,3.736-.9.055Z" transform="translate(-177.285 -374.343)"/></g></svg>