<svg xmlns="http://www.w3.org/2000/svg" width="48" height="35.368" viewBox="0 0 48 35.368"><defs><style>.a{fill:#98c1d9;}</style></defs><path class="a" d="M153.263,233.291v12.884h11.368a9.935,9.935,0,0,0,8.842-10.105,10.135,10.135,0,0,0-10.105-10.105h-.253a12.707,12.707,0,0,0-12.379-10.105,12.509,12.509,0,0,0-12.632,12.631,8.776,8.776,0,0,0-7.579,8.842,8.951,8.951,0,0,0,8.842,8.842h11.368V233.291l-5.81,5.81-1.768-1.768L152,228.491l8.842,8.842-1.768,1.768-5.811-5.81Zm0,12.884V248.7h-2.526v-2.526h-3.789V248.7h-7.579A11.321,11.321,0,0,1,128,237.333a11.58,11.58,0,0,1,7.579-10.863,15.313,15.313,0,0,1,29.558-3.032A12.6,12.6,0,0,1,176,236.07,12.827,12.827,0,0,1,164.631,248.7h-7.579v-2.526Z" transform="translate(-128 -213.333)"/></svg>