<svg xmlns="http://www.w3.org/2000/svg" width="17.693" height="17.936" viewBox="0 0 17.693 17.936"><defs><style>.a{fill:#73a5c3;}</style></defs><path class="a" d="M134.653,145.114a5.132,5.132,0,0,1-3.622-1.505,4.987,4.987,0,0,1-.423-6.68l.188-.235.047-.047,8.468-8.374a3.892,3.892,0,0,1,5.41,0,3.772,3.772,0,0,1,1.129,2.682,3.589,3.589,0,0,1-1.129,2.682l-8.28,8.186a2.527,2.527,0,0,1-3.575,0,2.488,2.488,0,0,1-.753-1.788,2.571,2.571,0,0,1,.753-1.788l6.963-6.868a.466.466,0,0,1,.659.659l-6.963,6.916a1.621,1.621,0,0,0-.47,1.082,1.429,1.429,0,0,0,.47,1.082,1.619,1.619,0,0,0,2.258,0l8.28-8.186a2.736,2.736,0,0,0,.847-2.023,2.812,2.812,0,0,0-.847-2.023,2.9,2.9,0,0,0-4.093,0l-8.421,8.374-.188.235a4.156,4.156,0,0,0,.329,5.457,4.282,4.282,0,0,0,5.551.329l.235-.188,8.938-8.844a.466.466,0,1,1,.659.659l-8.938,8.891-.047.047-.235.188A5.458,5.458,0,0,1,134.653,145.114Z" transform="translate(-129.521 -127.178)"/></svg>