<svg xmlns="http://www.w3.org/2000/svg" width="12.739" height="12.736" viewBox="0 0 12.739 12.736"><defs><style>.a{fill:#fff;fill-rule:evenodd;}</style></defs><g transform="translate(-6.005 -6.007)"><g transform="translate(6 6)"><path class="a" d="M11.608.208,6.375,5.441,1.142.208A.681.681,0,0,0,.675.021a.627.627,0,0,0-.457.2.627.627,0,0,0-.2.457.681.681,0,0,0,.187.467l5.236,5.23L.208,11.608a.637.637,0,0,0-.177.644.6.6,0,0,0,.457.467.667.667,0,0,0,.654-.177L6.375,7.309l5.233,5.233a.661.661,0,0,0,.934-.934L7.309,6.375l5.233-5.233A.637.637,0,0,0,12.719.5a.6.6,0,0,0-.467-.467.637.637,0,0,0-.644.175Z"/></g></g></svg>