<svg xmlns="http://www.w3.org/2000/svg" width="98.176" height="98.176" viewBox="0 0 98.176 98.176"><defs><style>.a{fill:#c92129;}.b{fill:none;stroke:#c92129;stroke-miterlimit:10;}</style></defs><g transform="translate(-211.963 -233.401)"><g transform="translate(216.557 237.777)"><g transform="translate(0)"><path class="a" d="M233.206,300.364a16.709,16.709,0,0,1,2.257-1.614l.695,1.292a19.413,19.413,0,0,0-2.339,1.515l2.338.612-.385,1.472-2.035-.533a10.2,10.2,0,0,1,1.164,2.679,6.28,6.28,0,0,0-1.437.718,8.926,8.926,0,0,0-1.051-3.111l-.491,1.875-1.284-.336.646-2.468-.751-.2c-.052.434-.129.845-.212,1.224-.138-.005-.326.007-.514.019a7.816,7.816,0,0,1,.557,1.287,10.62,10.62,0,0,0-1.3.785l1.313.344-.412,1.573,1.7.446.216-1.886,1.534.325c-.184,1.941-.388,4.014-.56,5.558l-1.691-.2c.1-.621.207-1.38.31-2.185l-1.919-.5-.461,1.76-1.5-.393.46-1.76-1.471-.385a5.652,5.652,0,0,0-.011,1.693c-.341,0-1.115.078-1.546.135a1.543,1.543,0,0,0-.5-.841,13.286,13.286,0,0,0-1.926-1.537l-.385,1.472-1.515-.4,1.39-5.31,1.515.4-.563,2.151a17.983,17.983,0,0,1,2.149,1.919l.226-1.806c-.417.061-.822.139-1.186.229l-.115-1.326a15.634,15.634,0,0,1,2.954-.507l-.649-.17.491-1.876a5.893,5.893,0,0,0-.6-.48l-.446,1.7-1.2-.314.555-2.121c-.176-.092-.349-.2-.539-.3l-.623,2.381-1.27-.333.684-2.612c-.346-.152-.71-.293-1.088-.439l.582-1.575.933.383.74-2.828,1.27.333-.8,3.073c.19.1.367.189.543.281l.778-2.973,1.2.313-.873,3.333c.209.147.421.28.615.423l1.064-4.069,1.3.34-.348,1.328a4.982,4.982,0,0,0,1.855-1.257,5.325,5.325,0,0,0,1.179,1.033,7.506,7.506,0,0,1-3.427,1.724l-.5,1.9a8.859,8.859,0,0,1,.764.909,13.194,13.194,0,0,0,.093-2.535l1.307-.753a11.333,11.333,0,0,1,.032,1.35l.981.257.649-2.482,1.285.337Zm-4.36,5.288a6.467,6.467,0,0,0-.873-1.909l-.257.981-.26-.068.148,1.318a5.4,5.4,0,0,0-.789.01l-.069.675,1.717.449Z" transform="translate(-220.697 -268.99)"/><path class="a" d="M245.794,264.067a10.31,10.31,0,0,1,1.022,4.414,10.832,10.832,0,0,0,2.981-1.549,6.816,6.816,0,0,0,.841,1.562c-.153.1-.317.2-.481.288l4.032,3.635-1.138,1.263-.553-.5-2.237,2.481.576.52-1.088,1.207-4.021-3.625c-.083.226-.188.433-.272.638a8.121,8.121,0,0,0-1.124-.491,6.713,6.713,0,0,0,1.018.9c-1.786,3.229-2.061,3.824-2.132,4.282a16.7,16.7,0,0,0-1.587-.668,2.572,2.572,0,0,0,.1-1.515,17.863,17.863,0,0,0-.283-1.8,6.626,6.626,0,0,0-1.013,1.636,12.708,12.708,0,0,0-1.629-.665,1.905,1.905,0,0,0-.025-1.287,16.8,16.8,0,0,0-1.647-4.054l1.736-.724a21.391,21.391,0,0,1,1.361,4.238l.741-.978c-.152-.5-.327-1.018-.51-1.483l1.092-.321a10.172,10.172,0,0,0-1.119-4.662l1.4-.865c.166.35.333.721.49,1.1l2.146-2.382.155-.262Zm-1.657,9.79a2.406,2.406,0,0,0-.374-.1A12.858,12.858,0,0,0,245,270.423a9.92,9.92,0,0,1-1.775-.034,9.141,9.141,0,0,1,.1,1.515c-.235-.051-.618-.115-1.012-.169a25.618,25.618,0,0,1,.8,3.833Zm-1.225-5.079a7.468,7.468,0,0,0,2.3.082,7.792,7.792,0,0,0-.228-2.375Zm1.082,11.7c.583-1.181,1.4-3.05,2.165-4.874l1.339.786c-.65,1.723-1.369,3.524-1.917,4.978Zm5.679-11.424a12.734,12.734,0,0,1-2.951,1.114,15,15,0,0,1-.753,3Zm1.671,3.092-1.307-1.179-2.237,2.482,1.307,1.178Z" transform="translate(-228.961 -252.945)"/><path class="a" d="M282.743,254.229l.607,1.62-12.7,4.758-.607-1.62,7.711-2.889c-.131-.6-.259-1.241-.4-1.907l-6.2,2.324c-.171-2.071-.588-5.228-1.062-7.727l-2.976,1.115-.6-1.592,11.86-4.443.6,1.592-7.069,2.649c.1.648.212,1.29.336,1.961l4.009-1.5.253-.174,1.329-.323c.544,2.09,1.155,4.952,1.649,7.379Zm-5.727-1.678c-.176-.81-.366-1.615-.528-2.3l-4,1.5c.12.831.235,1.648.333,2.377Z" transform="translate(-243.43 -242.788)"/><path class="a" d="M314.1,250.683a6.326,6.326,0,0,0,3.078,4.474,5.965,5.965,0,0,0-1.347,1.324,6.983,6.983,0,0,1-2.722-3.574,8.055,8.055,0,0,1-3.458,3.007,6.155,6.155,0,0,0-1.154-1.387l-.129,1.066-1.5-.181.308-2.546c-1.316.081-2.571.139-3.63.206l-.141-1.684.826-.005.973-8.039-.637-.077.19-1.57,5.744.7-.189,1.569-.533-.065-.887,7.328,1.041-.039-.064,1.524-1.165.069L308.5,254.5a6.292,6.292,0,0,0,3.793-4.032l-2.591-.314.193-1.6,2.725.33.02-.163.229-1.9-2.458-.3.194-1.6,1.6.194a9.953,9.953,0,0,0-1.087-2.31l1.487-.5a9.154,9.154,0,0,1,1.219,2.341l-1.323.5,1.7.206a16.429,16.429,0,0,0,1.612-2.644l1.722.674c-.514.764-1.075,1.552-1.587,2.182l1.687.2-.193,1.6-2.783-.337-.231,1.91-.018.148,3.212.389-.193,1.6Zm-6.727.6.19-1.57-1.526-.184-.218,1.806Zm-1.161-3.19,1.524.185.19-1.57-1.524-.184Zm.552-4.56-.188,1.555,1.525.184.189-1.555Z" transform="translate(-261.751 -241.697)"/><path class="a" d="M344.861,267.462c-.562.826-1.025,1.107-1.727.973a7.452,7.452,0,0,1-2.664-1.416,7.027,7.027,0,0,0,.464-1.849c.735.591,1.644,1.19,1.891,1.358.268.164.425.145.585-.09l5.2-7.646-7.474-5.085-1.443,2.122,1.236-.278c.105.667.2,1.4.286,2.126.609-.578,1.2-1.238,1.792-1.92l1.216,1.025a30.942,30.942,0,0,1-2.816,2.812c.063.836.084,1.627.091,2.226l-1.585.42c.028-.413.025-.939.011-1.526a10.012,10.012,0,0,1-3.363,1.574,6.858,6.858,0,0,0-.442-1.2l-1.394,2.048-1.467-1,7.359-10.816,10.409,7.083Zm-8.438-6.825a9.349,9.349,0,0,0,3.413-1.755c-.086-.961-.168-1.955-.292-2.833Zm6.638,4.193a15.544,15.544,0,0,0,.17-1.761,10.367,10.367,0,0,1-3.45,1.568,11.223,11.223,0,0,0-.605-1.549,9.07,9.07,0,0,0,4.073-1.955,25.46,25.46,0,0,0-.267-2.923l1.434-.2c.1.593.191,1.231.252,1.885.58-.561,1.153-1.164,1.705-1.817l1.211,1a26.875,26.875,0,0,1-2.795,2.808,14.831,14.831,0,0,1-.137,2.667Z" transform="translate(-276.527 -246.533)"/><path class="a" d="M365.621,294.9l-1.5.8-6.171-11.5,11.278-6.051,6.023,11.226-1.485.8-5.185-9.661-8.294,4.45,4.176,7.781a22.948,22.948,0,0,0,.614-3.9,7.264,7.264,0,0,1-3.987-2.414,7.939,7.939,0,0,0,.642-1.581c1.641,1.828,2.863,2.34,3.851,2.318l-1.82-3.391,1.353-.726,1.954,3.641,1.249-.67-.882-1.643a6.137,6.137,0,0,1-1.257-.324,10.431,10.431,0,0,0,.078-1.718,6.476,6.476,0,0,0,3.457.481l.415,1.657c-.292.021-.6.051-.912.066l2.884,5.377-1.314.705-1.636-3.05-1.248.67,1.926,3.589-1.354.726-1.933-3.6a30.532,30.532,0,0,1-.5,4.246l-1.539-.376Z" transform="translate(-288.739 -260.025)"/><path class="a" d="M383.013,321.235c-1.259-.368-2.758-.837-3.928-1.237a4.861,4.861,0,0,1-3.071,1.137,2.3,2.3,0,0,1-1.979-.641,1.82,1.82,0,0,1-.341-.845,4.893,4.893,0,0,1-.045-.955,3.583,3.583,0,0,0,1.515-.411,4.9,4.9,0,0,0,0,.642.635.635,0,0,0,.125.4,1.146,1.146,0,0,0,.9.24,4.231,4.231,0,0,0,2.713-1.071c.9.284,2.113.564,3.1.787l-.018-1.193-11.723.181-.024-1.551,13.3-.205.052,3.3.079.252ZM372.069,328.4c0,.224.258.294,1.78.3a4.4,4.4,0,0,0-.634,1.457c-2.045-.1-2.618-.512-2.634-1.556l-.016-1.029c-.02-1.313.482-1.619,1.959-1.642l3.042-.047-.015-.984c-2.509-.185-4.25-.844-5.294-3.723a4.619,4.619,0,0,0,1.416-1.006,3.75,3.75,0,0,0,3.851,3.029l-.027-1.79,1.581-.024.131,8.5-1.581.024-.036-2.341-3.058.047c-.418.006-.477.037-.474.246Zm7.457-5.933-.017-1.164,2.937-.045.053,3.46a11.09,11.09,0,0,0,1.408-.633l.5,1.677a9.505,9.505,0,0,1-1.881.88l.048,3.088-2.939.045-.017-1.178-1.327.02-.095-6.13Zm1.424.455-1.208.019.079,5.131,1.209-.018Z" transform="translate(-294.914 -279.315)"/></g></g><ellipse class="b" cx="48.588" cy="48.588" rx="48.588" ry="48.588" transform="translate(212.463 233.901)"/></g></svg>