<svg xmlns="http://www.w3.org/2000/svg" width="199.235" height="15.505" viewBox="0 0 199.235 15.505"><defs><style>.a,.b{fill:#666;}.a{fill-rule:evenodd;}</style></defs><g transform="translate(0 0.025)"><g transform="translate(0 -0.025)"><path class="a" d="M643.948,0H640.4a4.929,4.929,0,0,0-4.935,4.931v5.6a4.939,4.939,0,0,0,4.939,4.939h3.608a4.94,4.94,0,0,0,4.755-4.936v-5.6A4.924,4.924,0,0,0,643.948,0m3.063,9.89A3.81,3.81,0,0,1,643.2,13.7h-2.147a3.811,3.811,0,0,1-3.808-3.811V5.569a3.811,3.811,0,0,1,3.808-3.81H643.2a3.81,3.81,0,0,1,3.811,3.81Z" transform="translate(-557.826 0.003)"/><path class="a" d="M250.309,1.75h6.814a.886.886,0,0,0,0-1.77H249.67a4.94,4.94,0,0,0-4.94,4.94v5.591a4.94,4.94,0,0,0,4.94,4.939h7.453a.883.883,0,1,0,0-1.766H250.31a3.81,3.81,0,0,1-3.81-3.811V8.951h8.827a.887.887,0,1,0,.006-1.774H246.5V5.56a3.81,3.81,0,0,1,3.81-3.81" transform="translate(-214.828 0.021)"/><path class="a" d="M387.326,0a.876.876,0,0,0-.874.921v9.233a.552.552,0,0,1-1,.3L376.469.323a.879.879,0,0,0-1.559.552V14.591a.876.876,0,1,0,1.752,0V3.271l9.989,11.87a.872.872,0,0,0,1.554-.568V.878A.877.877,0,0,0,387.326,0" transform="translate(-329.102 0.003)"/><path class="a" d="M517.663,0a.876.876,0,0,0-.874.921v9.233a.552.552,0,0,1-1,.3L506.808.323a.878.878,0,0,0-1.558.552V14.591a.876.876,0,0,0,1.752,0V3.271l9.984,11.87a.872.872,0,0,0,1.552-.568V.879A.877.877,0,0,0,517.663,0" transform="translate(-443.516 0.003)"/><path class="a" d="M137.59.24l-4.509,5.328a.887.887,0,0,1-1.213,0L127.3.238a.857.857,0,1,0-1.208,1.216l5.245,6.019a.886.886,0,0,1,.224.549v6.547a.888.888,0,1,0,1.775,0V8.075a.881.881,0,0,1,.21-.54L138.8,1.451A.86.86,0,1,0,137.58.24" transform="translate(-110.465 0.016)"/><path class="a" d="M13.277.881A.885.885,0,0,0,12.447,0H4.94A4.942,4.942,0,0,0,0,4.942v5.586a4.939,4.939,0,0,0,4.939,4.939h7.453a.881.881,0,0,0,.733-.39.871.871,0,0,0,.15-.489V9.775A.876.876,0,0,0,12.4,8.9H7.942a.876.876,0,1,0,0,1.752h3.009a.551.551,0,0,1,.573.621v1.784c0,.276-.061.643-.72.643H5.578A3.81,3.81,0,0,1,1.768,9.89V5.581A3.8,3.8,0,0,1,5.578,1.77h6.853a.893.893,0,0,0,.846-.888" transform="translate(0 0.003)"/><rect class="b" width="1.763" height="15.467" rx="0.882" transform="translate(135.233 0.003)"/><path class="a" d="M1145.429,1.75h6.814a.886.886,0,0,0,0-1.77h-7.453a4.94,4.94,0,0,0-4.94,4.94v5.591a4.94,4.94,0,0,0,4.94,4.939h7.453a.883.883,0,1,0,0-1.766h-6.814a3.81,3.81,0,0,1-3.81-3.811V8.951h8.827a.887.887,0,1,0,.006-1.774h-8.833V5.56a3.81,3.81,0,0,1,3.81-3.81" transform="translate(-1000.578 0.021)"/><path class="a" d="M1527.267,1.75h6.814a.886.886,0,0,0,0-1.77h-7.453a4.94,4.94,0,0,0-4.939,4.939v5.592a4.939,4.939,0,0,0,4.939,4.939h7.453a.883.883,0,1,0,0-1.766h-6.814a3.811,3.811,0,0,1-3.811-3.811V8.951h8.827a.887.887,0,0,0,.007-1.774h-8.834V5.56a3.811,3.811,0,0,1,3.811-3.81" transform="translate(-1335.763 0.021)"/><path class="a" d="M1409.093,13.68h-6.814a3.81,3.81,0,0,1-3.811-3.811V9.654h0v-3.5h0v-.6a3.81,3.81,0,0,1,3.811-3.81h6.813a.886.886,0,1,0,0-1.77h-7.453a4.939,4.939,0,0,0-4.939,4.939v5.592a4.939,4.939,0,0,0,4.939,4.939h7.453a.883.883,0,1,0,0-1.766Z" transform="translate(-1226.045 0.025)"/><path class="a" d="M992.032,13.684h-6.814a3.81,3.81,0,0,1-3.81-3.811V9.658h0V6.16h0v-.6a3.81,3.81,0,0,1,3.81-3.81h6.814a.886.886,0,0,0,0-1.77h-7.453a4.939,4.939,0,0,0-4.939,4.939v5.592a4.94,4.94,0,0,0,4.94,4.939h7.453a.883.883,0,1,0,0-1.766Z" transform="translate(-859.944 0.021)"/><path class="a" d="M1282.446,0a.876.876,0,0,0-.874.921v9.233a.552.552,0,0,1-1,.3L1271.588.323a.878.878,0,0,0-1.558.552V14.591a.876.876,0,1,0,1.752,0V3.271l9.984,11.87a.872.872,0,0,0,1.554-.568V.879a.877.877,0,0,0-.874-.879" transform="translate(-1114.852 0.003)"/><path class="b" d="M864.207,7.391h-5.034a2.555,2.555,0,0,1,0-5.11h8.263a.863.863,0,0,0,0-1.724h-8.114c-.05,0-.1-.007-.153-.007a4.281,4.281,0,0,0-.378,8.553.818.818,0,0,0,.156.016h4.972a2.555,2.555,0,0,1,0,5.11h-8.245a.861.861,0,0,0,0,1.723h8.361a.818.818,0,0,0,.094-.01,4.276,4.276,0,0,0,.077-8.546Z" transform="translate(-750.269 -0.476)"/></g></g></svg>